<?xml version="1.0" encoding="utf-8"?>
<!-- Generator: Adobe Illustrator 27.5.0, SVG Export Plug-In . SVG Version: 6.00 Build 0)  -->
<svg version="1.1" xmlns="http://www.w3.org/2000/svg" xmlns:xlink="http://www.w3.org/1999/xlink" x="0px" y="0px"
	 viewBox="0 0 500 500" style="enable-background:new 0 0 500 500;" xml:space="preserve">
<g id="BACKGROUND">
	<rect style="fill:#FFFFFF;" width="500" height="500"/>
</g>
<g id="OBJECTS">
	<g>
		<path d="M445.951,236.632c-14.283,10.249-20.213,7.252-37.007,4.858c-11.582-1.651-22.991-4.001-34.535-5.364
			c8.981-7.61,21.393-7.652,31.777-12.107c2.647-1.135,2.067-4.671-0.641-3.569c-12.674,5.156-27.956,2.956-37.857,14.541
			c-0.122,0.143-0.221,0.293-0.305,0.445c-3.858-0.297-7.737-0.455-11.65-0.394c-15.362,0.238-42.839,11.892-57.444,16.506
			c2.538-1.617,17.294-12.325,19.836-13.904c19.971-12.412,35.282-15.172,55.272-27.552c5.029-3.114,9.8-6.875,14.427-11.001
			c12.804,5.769,26.164-0.291,39.444,0.313c2.96,0.134,2.356-3.149-0.557-3.332c-11.482-0.721-23.465,3.1-34.627-0.91
			c15.092-14.359,28.958-31.803,45.649-42.139c7.304-4.523,10.163-12.743,3.443-7.313c-14.446,11.673-27.077,21.837-37.879,30.394
			c-1.588-10.631,5.079-19.573,7.425-29.376c0.557-2.329-1.959-3.634-2.567-1.281c-2.847,11.017-11.606,20.261-9.049,32.495
			c0.091,0.433,0.295,0.77,0.559,1.032c-20.312,16.016-33.57,25.796-39.461,28.426c-2.006,0.896-4,1.764-5.98,2.612
			c4.343-17.05,25.799-34.422,32.71-47.16c1.693-3.12-0.902-6.663-2.669-3.538c-4.374,7.734-13.749,16.395-21.914,25.777
			c0.225-9.05-3.232-18.88-3.517-28.189c-0.082-2.669-2.63-2.512-2.589,0.109c0.177,11.473,4.813,24.177,0.424,34.445
			c-0.124,0.291-0.173,0.585-0.165,0.874c-4.572,6.217-8.014,12.707-8.696,19.418c-0.034,0.334-0.017,0.647,0.021,0.951
			c-14.252,5.888-27.575,10.781-38.879,15.945c4.016-17.826,5.912-34.835,18.615-48.786c2.507-2.754,1.341-7.378-1.155-4.746
			c-14.322,15.101-19.511,35.641-24.204,55.331c-0.131,0.551-0.107,1.029,0.013,1.447c-5.845,2.989-10.991,6.146-15.237,9.697
			c-14.806,12.383-26.889,26.176-30.629,35.985c7.707-54.737,46.643-85.625,70.825-125.741c2.968-4.924,5.799-9.946,8.468-15.051
			c14.763-5.046,24.691-10.878,35.37-22.963c1.089-1.232,0.691-5.601-0.219-4.295c-3.583,5.145-7.421,9.807-15.439,14.286
			c-5.686,3.177-11.59,5.892-17.58,8.796c8.515-17.072,14.996-35.118,17.713-54.095c1.205-8.419-2.184-5.949-3.401,2.552
			c-4.755,33.217-24.435,61.895-44.305,86.255c1.284-16.641,12.892-36.814,14.852-49.598c0.538-3.509-3.102-5.965-3.708-2.427
			c-1.5,8.758-7.394,20.079-11.905,31.669c-2.849-8.592-9.427-16.675-12.843-25.338c-0.98-2.484-3.324-1.475-2.4,0.978
			c4.047,10.738,12.706,21.125,12.048,32.272c-0.019,0.316,0.035,0.609,0.141,0.878c-1.923,6.465-2.962,12.834-2.107,18.707
			c-18.753,22.288-39.138,44.021-53.77,70.146c-0.588-14.233,0.195-39.108,1.745-66.36c14.361-10.244,13.362-28.291,20.954-42.289
			c1.669-3.078-2.773-4.331-4.479-1.332c-6.085,10.694-7.692,23.978-15.871,33.506c0.898-14.387,1.984-29.138,3.172-43.106
			c4.958-2.354,9.833-6.51,14.568-11.474c0.26-0.038,0.527-0.14,0.794-0.325c9.416-6.511,20.717-3.508,31.062-5.202
			c2.363-0.387,2.594-3.213,0.188-2.863c-8.387,1.219-17.135-0.965-25.307,0.77c8.747-10.514,16.885-22.239,24.014-28.317
			c2.881-2.456-0.225-4.724-3.099-2.35c-11.208,9.257-26.691,33.786-41.594,42.569c2.006-22.427,4.25-42.194,6.359-54.183
			c1.481-8.418-6.427,4.32-7.918,12.795c-0.752,4.275-3.767,13.932-4.43,18.916c-4.797-12.257-10.255-19.316-21.429-31.46
			c-1.516-1.648-8.537-2.739-6.904-1.34c6.434,5.512,12.203,11.348,17.287,23.112c3.419,7.911,6.267,16.066,9.291,24.351
			c-2.463,22.638-4.334,48.634-6.138,69.971c-5.214-9.305-12.602-17.68-17.221-27.432c-1.62-3.421-4.62-1.013-3.077,2.38
			c5.779,12.709,16.021,23.779,19.193,37.498c-0.938,9.958-1.887,18.203-2.922,23.588c-1.391,7.241-0.852,48.363-2.081,52.246
			c-1.872-5.775-12.406-23.359-16.185-28.118c-0.493-0.621-1.015-1.256-1.553-1.9c5.947-12.462-0.12-25.767,1.133-38.783
			c0.293-3.046-3.709-2.539-4.059,0.456c-1.277,10.933,2.142,22.448-1.59,33.114c-8.937-10.085-21.164-23.355-31.751-44.21
			c0.967-2.182,1.923-4.416,2.854-6.709c10.411-9.126,23.086-4.652,34.615-6.896c2.635-0.513,2.845-4.545,0.162-4.086
			c-10.414,1.781-21.399-2.465-31.338,1.707c5.657-17.019,8.731-37.78,2.568-66.667c-0.722-3.385-2.668,2.388-2.268,5.653
			c2.93,23.905,1.615,38.764-2.423,50.071c-3.038,8.506-5.879,12.219-8.287,18.21c-0.079-0.179-0.159-0.352-0.237-0.533
			c-7.801-17.955-34.094-43.32-37.1-97.655c-0.47-8.501-3.395-11.73-2.849-3.137c1.517,23.893,6.629,44.91,13.211,63.481
			c-14.695-9.515-38.195-9.797-49.327-17.049c-3.183-2.074-4.579-0.669-1.487,1.447c7.43,5.084,21.486,8.65,34.032,13.705
			c-14.807,6.381-37.554,3.356-50.44,5.918c-3.222,0.641-5.768,2.867-2.499,2.276c8.091-1.462,19.8,0.088,31.306,0.35
			c-6.574,5.192-11.525,13.467-17.981,19.175c-1.851,1.637-0.232,3.357,1.609,1.778c8.061-6.912,14.36-17.724,24.263-20.674
			c0.281-0.083,0.519-0.223,0.719-0.399c7.129-0.424,13.783-1.812,18.963-5.295c0.156-0.105,0.289-0.222,0.421-0.34
			c6.204,2.985,11.594,6.529,14.98,11.075c9.492,23.294,20.768,42.405,28.86,58.271c15.201,29.806,29.625,35.412,38.534,67.628
			c-18.538-28.747-33.674-28.227-58.532-34.531c-2.534-2.017-6.093-4.711-7.467-7.368c-4.979-9.631,4.262-22.686,7.243-34.052
			c0.681-2.596-1.307-4.68-2.057-2.064c-3.171,11.058-13.082,19.625-12.007,31.914c-2.748-2.412-5.406-4.945-7.898-7.712
			c-8.894-9.878-16.712-16.96-18.186-30.229c-0.364-3.277-3.243-7.828-3.274-4.367c-0.167,18.367,10.446,34.957,24.027,48.061
			c-18.26-6.3-60.91-22.302-70.74-40.388c-4.112-7.565-8.477-9.802-4.361-2.229c7.815,14.376,21.078,27.919,35.893,33.739
			c2.271,0.893,4.467,1.795,6.617,2.709c-9.436,0.334-19.043,1.982-28.507,1.238c-3.774-0.296-3.177,3.503,0.534,3.853
			c15.699,1.48,32.418-3.025,47.246,3.987c5.606,2.874,11.238,5.925,17.284,9.233c19.4,10.615,51.084,13.751,63.381,42.885
			c-6.463-2.818-21.349-9.582-28.436-10.598c-14.218-2.038-34.757,3.439-50.966,5.057c-12.021-1.375-23.43-3.726-33.972-11.345
			c-3.019-2.181-7.482-0.502-4.586,1.682c6.814,5.138,14.371,8.631,22.293,11.152c-22.068,1.667-46.33,2.061-63.971-9.778
			c-7.167-4.81-10.029-2.45-2.91,2.328c9.259,6.214,19.373,10.3,29.932,12.963c-16.791,2.786-31.685,8.632-34.712,19.282
			c-0.524,1.846,2.96,0.263,3.834-1.37c3.538-6.613,12.157-8.111,22.254-10.78c8.009-2.117,16.971-2.887,25.742-3.998
			c22.51,2.777,45.996,1.072,66.897,0.98c19.099-0.084,32.642,5.368,45.964,17.381c3.292,6.2,3.874,58.725,3.857,65.35
			c-0.034,13.152-3.245,26.381-9.928,37.708c-6.683,11.327-25.685,20.563-45.068,21.281c-32.409,1.2-52.404,0-56.711,11.127
			c27.997,0,77.335,1.372,94.937-6.64c-21.397,20.078-54.378,7.179-53.839,20.639c15.126,2.594,42.713,1.436,90.989-11.845
			c-13.46,15.075-30.868,9.87-29.073,20.818c14.716-0.897,29.313-6.086,57.249-17.229c39.389,14.702,55.455,8.973,80.939,11.845
			c2.513-12.563-43.43-8.255-52.045-24.766c31.066,8.168,56.913,9.598,84.707,10.05c2.154-10.05-34.068-12.271-37.329-12.922
			c-38.351-7.655-47.846-10.233-58.505-39.482c-5.912-16.223-9.634-37.925-5.137-92.202c17.861-17.405,51.64-21.69,75.436-18.263
			c18.619,2.681,34.788,10.401,53.562,12.031c13.111,1.138,30.917-4.476,35.845-7.895c6.82-4.731-0.357-5.076-3.948-3.654
			c-20.098,7.96-51.258-3.294-73.762-9.709c14.937-0.414,32.122,3.29,42.731,2.028c3.549-0.422,4.953-4.614,1.357-4.25
			c-8.9,0.901-21.469-1.771-33.927-3.029c7.569-5.076,13.641-13.632,21.126-19.277c2.147-1.619,0.536-3.622-1.595-2.065
			c-9.328,6.815-17.076,18.01-28.067,20.371c-0.311,0.067-0.582,0.198-0.814,0.372c-5.964-0.11-11.666,0.432-16.672,2.196
			c-1.326-0.168-2.566-0.268-3.7-0.277c-25.761-0.199-31.765-2.961-53.839,0.808c24.766-13.998,50.668-38.263,84.743-37.272
			c35.367,1.029,52.269,10.892,73.266-2.338C451.672,236.732,452.963,231.6,445.951,236.632z"/>
		<g>
			<path d="M227.189,74.78c-9.041-19.469-20.803-10.609-39.041-15.567C188.147,59.213,199.4,91.01,227.189,74.78z"/>
			<path d="M261.767,67.991c20.667,5.803,21.593-8.894,37.225-19.516C298.992,48.475,267.526,36.329,261.767,67.991z"/>
			<path d="M276.16,135.984c3.505,15.585,13.456,10.997,25.938,17.479C302.098,153.463,298.93,128.563,276.16,135.984z"/>
			<path d="M266.704,101.953c12.594-8.326,11.038-20.666,6.741-28.783C273.445,73.17,252.507,84.324,266.704,101.953z"/>
			<path d="M234.296,55.635c-1.247,12.065,7.21,17.386,14.441,18.854C248.737,74.489,252.479,55.801,234.296,55.635z"/>
			<path d="M226.623,59.391c4.327-14.464-4.778-22.936-13.28-26.411C213.342,32.981,204.426,54.964,226.623,59.391z"/>
			<path d="M326.628,51.828c-0.559,17.787,11.453,15.609,23.112,26.078C349.74,77.906,353.256,50.164,326.628,51.828z"/>
			<path d="M318.142,110.076c-0.467-21.461,10.788-18.635,21.753-31.067C339.895,79.009,343.103,112.523,318.142,110.076z"/>
			<path d="M254.452,60.157c11.483-18.136-2.331-23.236-8.027-41.257C246.424,18.9,225.769,45.565,254.452,60.157z"/>
			<path d="M75.393,150.095c-17.007-7.833-19.82,4.7-34.743,11.707C40.65,161.802,66.091,176.58,75.393,150.095z"/>
			<path d="M66.223,190.822c10.727-8.036,3.781-14.1,4.44-25.903C70.663,164.919,52.686,175.893,66.223,190.822z"/>
			<path d="M137.102,149.43c-1.247,12.065,7.21,17.386,14.441,18.853C151.543,168.284,155.284,149.596,137.102,149.43z"/>
			<path d="M97.144,187.249c3.345,11.658,13.176,13.441,20.433,12.104C117.576,199.353,114.075,180.619,97.144,187.249z"/>
			<path d="M83.099,136.662c7.044,9.874,16.907,8.272,23.301,4.59C106.4,141.253,96.847,124.761,83.099,136.662z"/>
			<path d="M38.625,195.272c10.351,7.808,20.265,2.513,25.909-3.7C64.533,191.572,49.575,177.722,38.625,195.272z"/>
			<path d="M75.85,159.39c9.76,7.201,18.639,2.618,23.575-2.866C99.425,156.524,85.227,143.811,75.85,159.39z"/>
			<path d="M52.746,238.474c9.76,7.201,18.639,2.618,23.575-2.866C76.321,235.608,62.123,222.895,52.746,238.474z"/>
			<path d="M25.059,295.902c12.12,0.451,16.875-8.337,17.864-15.649C42.923,280.253,24.03,277.747,25.059,295.902z"/>
			<path d="M44.333,341.423c9.084-8.036,6.462-17.678,2.133-23.653C46.466,317.771,31.062,328.993,44.333,341.423z"/>
			<path d="M36.2,254.526c-4.799,11.139,1.679,18.747,8.14,22.31C44.34,276.836,53.5,260.124,36.2,254.526z"/>
			<path d="M69.494,266.506c4.906,11.092,14.888,11.515,21.894,9.2C91.388,275.705,85.362,257.625,69.494,266.506z"/>
			<path d="M134.106,273.432c14.006,4.683,22.573-3.954,26.236-12.157C160.343,261.276,139.13,251.87,134.106,273.432z"/>
			<path d="M130.245,302.648c-3.091,11.728,4.445,18.289,11.363,20.854C141.608,323.502,148.185,305.615,130.245,302.648z"/>
			<path d="M173.39,245.454c9.59,0.69,13.597-6.142,14.582-11.907C187.972,233.547,173.073,231.043,173.39,245.454z"/>
			<path d="M94.75,123.443c-6.999-13.377-19.432-13.087-27.945-9.64C66.804,113.803,75.765,135.768,94.75,123.443z"/>
			<path d="M131.729,133.123c11.483-18.136-2.331-23.236-8.027-41.257C123.702,91.866,103.046,118.53,131.729,133.123z"/>
			<path d="M132.607,213.41c16.179-7.158,9.055-16.984,13.415-31.939C146.023,181.471,119.651,190.266,132.607,213.41z"/>
			<path d="M64.533,261.521c17.507,2.551,16.706-9.559,28.356-19.899C92.89,241.622,65.882,235.031,64.533,261.521z"/>
			<path d="M60.306,329.597c14.973-3.947,10.177-13.424,16.015-25.745C76.321,303.852,52.312,307.802,60.306,329.597z"/>
			<path d="M26.194,323.021c12.901,0.78,11.573-7.987,19.418-16.231C45.612,306.79,25.546,303.654,26.194,323.021z"/>
			<path d="M38.924,297.072c9.553,8.227,13.197,1.227,23.651,0.054C62.574,297.126,48.741,282.969,38.924,297.072z"/>
			<path d="M113.493,126.884c4.543-20.979-10.183-21.016-21.731-35.977C91.762,90.907,81.541,123.05,113.493,126.884z"/>
			<path d="M123.753,151.77c6.443,17.337-5.68,19.012-13.263,33.027C110.49,184.797,97.932,158.599,123.753,151.77z"/>
			<path d="M69.57,203.755c-3.871,18.086-14.998,12.991-28.92,20.745C40.65,224.499,44.119,195.655,69.57,203.755z"/>
			<path d="M146.193,97.854c20.014-7.759,11.936-20.071,18.067-37.949C164.26,59.905,131.8,69.07,146.193,97.854z"/>
			<path d="M195.33,129.593c18.035,5.064,18.844-7.761,32.486-17.031C227.816,112.562,200.355,101.962,195.33,129.593z"/>
			<path d="M220.156,197.194c-2.612,12.743,6.311,12.666,13.409,21.655C233.565,218.849,239.543,199.303,220.156,197.194z"/>
			<path d="M182.658,141.07c-16.776-4.635-11.018-16.081-17.174-30.867C165.484,110.203,192.468,114.772,182.658,141.07z"/>
			<path d="M91.411,172.26c8.665,12.275-1.443,16.766-5.425,30.007C85.986,202.267,70.47,184.45,91.411,172.26z"/>
			<path d="M122.168,216.131c-12.784,7.894-16.646-2.471-29.617-7.259C92.551,208.872,111.288,194.48,122.168,216.131z"/>
			<path d="M118.649,244.963c-5.334,14.046-14.709,8.176-27.913,12.277C90.736,257.24,96.835,234.414,118.649,244.963z"/>
			<path d="M124.25,306.529c-1.911,18.278-14.966,14.256-29.429,23.223C94.821,329.752,94.859,300.851,124.25,306.529z"/>
			<path d="M88.355,232.297c-11.967,4.43-13.758-5.704-24.069-12.723C64.287,219.574,82.23,210.542,88.355,232.297z"/>
			<path d="M51.516,264.857c12.738-0.757,11.504,9.459,19.327,19.174C70.843,284.032,51.048,287.453,51.516,264.857z"/>
			<path d="M109.151,259.254c17.641-0.621,15.592,13.465,26.086,27.162C135.237,286.416,107.749,290.486,109.151,259.254z"/>
			<path d="M152.161,124.595c12.594-8.326,11.038-20.666,6.741-28.783C158.902,95.812,137.965,106.966,152.161,124.595z"/>
			<path d="M162.046,198.1c7.021-13.366-0.29-23.427-7.968-28.467C154.079,169.633,141.111,189.497,162.046,198.1z"/>
			<path d="M120.33,53.598c-1.247,12.065,7.21,17.386,14.441,18.853C134.772,72.451,138.513,53.764,120.33,53.598z"/>
			<path d="M135.544,83.278c-6.177-13.776-18.606-14.238-27.311-11.312C108.233,71.966,115.849,94.433,135.544,83.278z"/>
			<path d="M184.806,154.258c-6.177-13.776-18.606-14.238-27.311-11.312C157.494,142.946,165.111,165.413,184.806,154.258z"/>
			<path d="M122.291,191.961c14.323-4.774,16.021-17.095,13.976-26.049C136.267,165.912,113.153,171.254,122.291,191.961z"/>
			<path d="M167.045,243.85c11.315-9.996,8.059-21.999,2.675-29.44C169.72,214.409,150.537,228.365,167.045,243.85z"/>
			<path d="M197.2,96.598c15.507,14.843,23.238,2.311,42.029,0.292C239.229,96.89,217.177,71.368,197.2,96.598z"/>
			<path d="M226.399,155.284c-11.732-17.976-0.682-21.522,2.062-37.869C228.461,117.414,248.886,144.178,226.399,155.284z"/>
			<path d="M285.043,189.449c-16.401,10.105-19.324,0.109-33.926-2.734C251.117,186.714,275.605,169.015,285.043,189.449z"/>
			<path d="M183.718,106.088c11.483-18.136-2.331-23.236-8.027-41.257C175.691,64.831,155.035,91.496,183.718,106.088z"/>
			<path d="M459.026,172.596c-15.494,5.27-16.805-5.88-29.143-13.322C429.882,159.275,453.336,148.73,459.026,172.596z"/>
			<path d="M443.668,141.8c-4.719-12.545,4.398-13.919,10.192-24.224C453.86,117.577,463.111,136.498,443.668,141.8z"/>
			<path d="M356.484,129.688c7.34,9.656,2.885,18.599-2.527,23.614C353.957,153.302,341.041,139.288,356.484,129.688z"/>
			<path d="M390.055,168.619c3.223,10.348-3.246,16.503-9.321,19.066C380.734,187.685,374.156,171.976,390.055,168.619z"/>
			<path d="M393.919,124.101c-11.2,4.656-18.724-1.919-22.204-8.425C371.715,115.676,388.543,106.73,393.919,124.101z"/>
			<path d="M473.656,149.099c-9.656,7.284-18.904,2.345-24.169-3.451C449.487,145.648,463.44,132.727,473.656,149.099z"/>
			<path d="M425.236,143.207c3.698,11.516-4.01,18.622-11.216,21.685C414.02,164.891,406.414,147.462,425.236,143.207z"/>
			<path d="M400.592,136.396c3.165,11.708-4.329,18.317-11.231,20.926C389.361,157.322,382.671,139.477,400.592,136.396z"/>
			<path d="M439.25,224.738c-11.731,8.655-22.403,3.147-28.336-3.445C410.914,221.293,427.979,206.012,439.25,224.738z"/>
			<path d="M390.409,223.738c-7.773-7.171-5.311-15.528-1.428-20.657C388.98,203.081,402.204,213.144,390.409,223.738z"/>
			<path d="M297.652,232.294c-11.922-7.535-10.705-19.089-6.848-26.753C290.805,205.541,310.573,215.558,297.652,232.294z"/>
			<path d="M472.299,282.168c-6.374,14.443-21.879,13.882-33.059,9.956C439.24,292.124,446.561,268.358,472.299,282.168z"/>
			<path d="M406.555,319.864c3.218-11.694,13.029-13.583,20.3-12.326C426.855,307.538,423.558,326.309,406.555,319.864z"/>
			<path d="M451.28,239.616c9.328-7.753,18.456-3.691,23.701,1.499C474.981,241.115,461.541,254.627,451.28,239.616z"/>
			<path d="M434.445,247.46c8.899-2.817,14.226,2.728,16.457,7.949C450.902,255.409,437.4,261.138,434.445,247.46z"/>
			<path d="M337.477,255.497c10.878,5.881,10.502,16.061,7.584,22.994C345.06,278.491,327.171,270.907,337.477,255.497z"/>
			<path d="M418.388,255.378c-8.093,9.033-17.718,6.35-23.666,1.984C394.722,257.362,406.041,242.029,418.388,255.378z"/>
			<path d="M348.689,296.685c3.091,11.728-4.445,18.289-11.363,20.854C337.325,317.539,330.749,299.651,348.689,296.685z"/>
			<path d="M374.359,110.203c-1.343-15.038,9.274-21.515,18.3-23.216C392.659,86.987,396.993,110.31,374.359,110.203z"/>
			<path d="M354.563,119.521c-8.753-13.825,1.777-17.712,6.119-31.45C360.682,88.071,376.428,108.397,354.563,119.521z"/>
			<path d="M354.346,189.327c-14.923,1.632-13.726-7.191-23.142-14.885C331.205,174.443,354.34,169.988,354.346,189.327z"/>
			<path d="M451.506,232.987c-1.876-14.755,8.292-13.896,17.162-23.53C468.668,209.457,473.793,232.259,451.506,232.987z"/>
			<path d="M461.986,311.03c-13.1,8.256-16.758-1.717-29.75-5.852C432.237,305.178,451.503,290.317,461.986,311.03z"/>
			<path d="M451.28,264.792c-0.855,18.079-10.294,15.041-20.376,24.854C430.904,289.646,430.125,261.267,451.28,264.792z"/>
			<path d="M361.566,125.081c15.78-4.669,16.647,6.586,28.744,14.561C390.31,139.642,366.32,149.29,361.566,125.081z"/>
			<path d="M362.651,140.029c-5.179,13.935,4.565,15.282,10.661,26.547C373.312,166.576,383.406,145.518,362.651,140.029z"/>
			<path d="M431.475,197.921c12.911,12.672,19.862,1.881,36.023,0.066C467.498,197.987,449.25,176.178,431.475,197.921z"/>
			<path d="M290.187,184.948c-17.223-6.677-10.272-17.273-15.548-32.658C274.639,152.291,302.573,160.178,290.187,184.948z"/>
			<path d="M209.55,211.309c-18.751-2.126-14.633-14.4-23.84-28.231C185.71,183.078,215.358,183.62,209.55,211.309z"/>
			<path d="M200.155,168.619c16.776-4.635,11.018-16.081,17.174-30.867C217.329,137.753,190.345,142.322,200.155,168.619z"/>
			<path d="M402.824,110.665c-8.665,12.275,1.444,16.766,5.425,30.007C408.248,140.672,423.765,122.855,402.824,110.665z"/>
			<path d="M413.78,190.467c15.551,9.603,20.249-3.006,36.028-8.83C449.808,181.637,427.015,164.13,413.78,190.467z"/>
			<path d="M442.855,233.387c8.825-4.587,4.244-10.3,5.925-19.297C448.78,214.09,434.242,219.856,442.855,233.387z"/>
			<path d="M353.704,301.302c-3.969,18.739,10.268,18.94,21.734,32.472C375.438,333.775,384.672,305.101,353.704,301.302z"/>
			<path d="M402.85,217.606c11.967,4.43,13.758-5.704,24.069-12.723C426.919,204.882,408.975,195.85,402.85,217.606z"/>
			<path d="M429.006,264.677c-12.738-0.757-11.504,9.459-19.327,19.174C409.68,283.851,429.474,287.273,429.006,264.677z"/>
			<path d="M371.145,251.641c-14.647-0.516-12.946,11.18-21.659,22.552C349.486,274.192,372.309,277.572,371.145,251.641z"/>
			<path d="M302.26,125.627c-3.339-11.804,4.161-18.576,11.111-21.295C313.371,104.332,320.348,122.3,302.26,125.627z"/>
			<path d="M329.332,172.9c-3.933-14.576,5.399-22.798,13.992-26.04C343.324,146.859,351.641,169.077,329.332,172.9z"/>
			<path d="M367.794,51.831c1.247,12.065-7.21,17.386-14.441,18.853C353.353,70.685,349.612,51.998,367.794,51.831z"/>
			<path d="M358.059,81.641c6.177-13.776,18.606-14.238,27.311-11.312C385.37,70.329,377.754,92.796,358.059,81.641z"/>
			<path d="M267.358,131.817c-1.087-12.407,8.941-17.84,17.422-19.318C284.78,112.499,288.577,131.725,267.358,131.817z"/>
			<path d="M212.638,196.136c-1.944-12.932,6.899-19.085,14.615-21.026C227.252,175.11,232.213,195.051,212.638,196.136z"/>
			<path d="M433.325,119.67c0.239,13.907-9.947,19.156-18.352,20.122C414.973,139.791,412.534,118.072,433.325,119.67z"/>
			<path d="M331.654,210.856c-11.315-9.996-8.059-21.999-2.675-29.44C328.979,181.416,348.163,195.372,331.654,210.856z"/>
			<path d="M302.334,102.515c-11.483-18.136,2.331-23.236,8.027-41.257C310.361,61.258,331.017,87.923,302.334,102.515z"/>
		</g>
	</g>
	<g>
		<path style="fill:#FFFFFF;" d="M230.404,59.089c0,3.09-2.505,5.594-5.594,5.594c-3.09,0-5.594-2.505-5.594-5.594
			c0-3.09,2.505-5.594,5.594-5.594C227.899,53.495,230.404,56,230.404,59.089z"/>
		<circle style="fill:#FFFFFF;" cx="224.81" cy="85.005" r="25.273"/>
		<g>
			<circle cx="224.81" cy="85.005" r="23.667"/>
			<circle style="fill:#FFFFFF;" cx="224.81" cy="85.005" r="20.456"/>
		</g>
		<g>
			<circle cx="224.81" cy="59.089" r="3.678"/>
			<path style="fill:#FFFFFF;" d="M226.722,59.089c0,1.056-0.856,1.913-1.913,1.913c-1.056,0-1.913-0.856-1.913-1.913
				c0-1.056,0.856-1.913,1.913-1.913C225.866,57.176,226.722,58.033,226.722,59.089z"/>
		</g>
	</g>
	<g>
		<path style="fill:#FFFFFF;" d="M300.668,69.385c0,3.09-2.505,5.594-5.594,5.594s-5.594-2.505-5.594-5.594
			c0-3.09,2.505-5.594,5.594-5.594S300.668,66.295,300.668,69.385z"/>
		
			<ellipse transform="matrix(0.2323 -0.9727 0.9727 0.2323 133.845 360.1703)" style="fill:#FFFFFF;" cx="295.074" cy="95.3" rx="25.273" ry="25.273"/>
		<g>
			<ellipse transform="matrix(0.2321 -0.9727 0.9727 0.2321 133.8888 360.197)" cx="295.074" cy="95.3" rx="23.667" ry="23.667"/>
			
				<ellipse transform="matrix(0.1612 -0.9869 0.9869 0.1612 153.4517 371.1518)" style="fill:#FFFFFF;" cx="295.074" cy="95.3" rx="20.456" ry="20.456"/>
		</g>
		<g>
			<circle cx="295.074" cy="69.385" r="3.678"/>
			<path style="fill:#FFFFFF;" d="M296.987,69.385c0,1.056-0.856,1.913-1.913,1.913s-1.913-0.856-1.913-1.913
				c0-1.056,0.856-1.913,1.913-1.913S296.987,68.328,296.987,69.385z"/>
		</g>
	</g>
	<g>
		<circle style="fill:#FFFFFF;" cx="159.89" cy="120.409" r="5.594"/>
		
			<ellipse transform="matrix(0.7677 -0.6408 0.6408 0.7677 -56.6243 136.4604)" style="fill:#FFFFFF;" cx="159.89" cy="146.325" rx="25.273" ry="25.273"/>
		<g>
			
				<ellipse transform="matrix(0.7682 -0.6402 0.6402 0.7682 -56.6165 136.2904)" cx="159.89" cy="146.325" rx="23.667" ry="23.667"/>
			
				<ellipse transform="matrix(0.7692 -0.639 0.639 0.7692 -56.6005 135.9507)" style="fill:#FFFFFF;" cx="159.89" cy="146.325" rx="20.456" ry="20.456"/>
		</g>
		<g>
			<circle cx="159.89" cy="120.409" r="3.678"/>
			<path style="fill:#FFFFFF;" d="M161.803,120.409c0,1.056-0.856,1.913-1.913,1.913c-1.056,0-1.913-0.856-1.913-1.913
				c0-1.056,0.856-1.913,1.913-1.913C160.946,118.496,161.803,119.353,161.803,120.409z"/>
		</g>
	</g>
	<g>
		<path style="fill:#FFFFFF;" d="M374.07,113.226c0,3.09-2.505,5.594-5.594,5.594c-3.09,0-5.594-2.505-5.594-5.594
			c0-3.09,2.505-5.594,5.594-5.594C371.566,107.631,374.07,110.136,374.07,113.226z"/>
		
			<ellipse transform="matrix(0.1471 -0.9891 0.9891 0.1471 176.6343 483.1348)" style="fill:#FFFFFF;" cx="368.476" cy="139.141" rx="25.273" ry="25.273"/>
		<g>
			<circle cx="368.476" cy="139.141" r="23.667"/>
			<circle style="fill:#FFFFFF;" cx="368.476" cy="139.141" r="20.456"/>
		</g>
		<g>
			<circle cx="368.476" cy="113.226" r="3.678"/>
			<path style="fill:#FFFFFF;" d="M370.389,113.226c0,1.056-0.856,1.913-1.913,1.913c-1.056,0-1.913-0.856-1.913-1.913
				c0-1.056,0.856-1.913,1.913-1.913C369.532,111.313,370.389,112.169,370.389,113.226z"/>
		</g>
	</g>
	<g>
		<circle style="fill:#FFFFFF;" cx="409.68" cy="158.674" r="5.594"/>
		
			<ellipse transform="matrix(0.9214 -0.3886 0.3886 0.9214 -39.5339 173.7333)" style="fill:#FFFFFF;" cx="409.68" cy="184.589" rx="25.273" ry="25.273"/>
		<g>
			
				<ellipse transform="matrix(0.9215 -0.3883 0.3883 0.9215 -39.5293 173.5465)" cx="409.68" cy="184.589" rx="23.667" ry="23.667"/>
			
				<ellipse transform="matrix(0.9219 -0.3875 0.3875 0.9219 -39.52 173.1738)" style="fill:#FFFFFF;" cx="409.68" cy="184.589" rx="20.456" ry="20.456"/>
		</g>
		<g>
			<circle cx="409.68" cy="158.674" r="3.678"/>
			<circle style="fill:#FFFFFF;" cx="409.68" cy="158.674" r="1.913"/>
		</g>
	</g>
	<g>
		<circle style="fill:#FFFFFF;" cx="341.163" cy="210.189" r="5.594"/>
		
			<ellipse transform="matrix(0.2273 -0.9738 0.9738 0.2273 33.6947 514.6743)" style="fill:#FFFFFF;" cx="341.163" cy="236.105" rx="25.273" ry="25.273"/>
		<g>
			<circle cx="341.163" cy="236.105" r="23.667"/>
			<circle style="fill:#FFFFFF;" cx="341.163" cy="236.105" r="20.456"/>
		</g>
		<g>
			<circle cx="341.163" cy="210.189" r="3.678"/>
			<path style="fill:#FFFFFF;" d="M343.076,210.189c0,1.056-0.856,1.913-1.913,1.913c-1.056,0-1.913-0.856-1.913-1.913
				c0-1.056,0.856-1.913,1.913-1.913C342.22,208.277,343.076,209.133,343.076,210.189z"/>
		</g>
	</g>
	<g>
		<path style="fill:#FFFFFF;" d="M412.5,223.902c0,3.09-2.505,5.594-5.594,5.594s-5.594-2.505-5.594-5.594
			c0-3.09,2.505-5.594,5.594-5.594S412.5,220.813,412.5,223.902z"/>
		
			<ellipse transform="matrix(0.7071 -0.7071 0.7071 0.7071 -57.4679 360.896)" style="fill:#FFFFFF;" cx="406.906" cy="249.818" rx="25.273" ry="25.273"/>
		<g>
			
				<ellipse transform="matrix(0.7071 -0.7071 0.7071 0.7071 -57.4679 360.896)" cx="406.906" cy="249.818" rx="23.667" ry="23.667"/>
			
				<ellipse transform="matrix(0.1531 -0.9882 0.9882 0.1531 97.7455 613.6877)" style="fill:#FFFFFF;" cx="406.906" cy="249.818" rx="20.456" ry="20.456"/>
		</g>
		<g>
			<circle cx="406.906" cy="223.902" r="3.678"/>
			<path style="fill:#FFFFFF;" d="M408.819,223.902c0,1.056-0.856,1.913-1.913,1.913c-1.056,0-1.913-0.856-1.913-1.913
				c0-1.056,0.856-1.913,1.913-1.913C407.962,221.99,408.819,222.846,408.819,223.902z"/>
		</g>
	</g>
	<g>
		<circle style="fill:#FFFFFF;" cx="313.413" cy="284.405" r="5.594"/>
		
			<ellipse transform="matrix(0.9442 -0.3293 0.3293 0.9442 -84.7149 120.5294)" style="fill:#FFFFFF;" cx="313.413" cy="310.32" rx="25.273" ry="25.273"/>
		<g>
			<ellipse transform="matrix(0.9443 -0.329 0.329 0.9443 -84.6554 120.4046)" cx="313.413" cy="310.32" rx="23.667" ry="23.667"/>
			
				<ellipse transform="matrix(0.9445 -0.3284 0.3284 0.9445 -84.5365 120.1556)" style="fill:#FFFFFF;" cx="313.413" cy="310.32" rx="20.456" ry="20.456"/>
		</g>
		<g>
			<circle cx="313.413" cy="284.405" r="3.678"/>
			<path style="fill:#FFFFFF;" d="M315.326,284.405c0,1.056-0.856,1.913-1.913,1.913s-1.913-0.856-1.913-1.913
				s0.856-1.913,1.913-1.913S315.326,283.348,315.326,284.405z"/>
		</g>
	</g>
	<g>
		<path style="fill:#FFFFFF;" d="M264.475,223.902c0,3.09-2.505,5.594-5.594,5.594c-3.09,0-5.594-2.505-5.594-5.594
			c0-3.09,2.505-5.594,5.594-5.594C261.971,218.308,264.475,220.813,264.475,223.902z"/>
		
			<ellipse transform="matrix(0.7071 -0.7071 0.7071 0.7071 -100.8234 256.2266)" style="fill:#FFFFFF;" cx="258.881" cy="249.818" rx="25.273" ry="25.273"/>
		<g>
			
				<ellipse transform="matrix(0.7071 -0.7071 0.7071 0.7071 -100.8234 256.2266)" cx="258.881" cy="249.818" rx="23.667" ry="23.667"/>
			
				<ellipse transform="matrix(0.1548 -0.9879 0.9879 0.1548 -27.9966 466.9113)" style="fill:#FFFFFF;" cx="258.881" cy="249.818" rx="20.456" ry="20.456"/>
		</g>
		<g>
			<circle cx="258.881" cy="223.902" r="3.678"/>
			<path style="fill:#FFFFFF;" d="M260.794,223.902c0,1.056-0.856,1.913-1.913,1.913c-1.056,0-1.913-0.856-1.913-1.913
				c0-1.056,0.856-1.913,1.913-1.913C259.938,221.99,260.794,222.846,260.794,223.902z"/>
		</g>
	</g>
	<g>
		<path style="fill:#FFFFFF;" d="M182.954,265.23c0,3.09-2.505,5.594-5.594,5.594c-3.09,0-5.594-2.505-5.594-5.594
			c0-3.09,2.505-5.594,5.594-5.594C180.449,259.636,182.954,262.14,182.954,265.23z"/>
		
			<ellipse transform="matrix(0.1782 -0.984 0.984 0.1782 -140.7364 413.7714)" style="fill:#FFFFFF;" cx="177.359" cy="291.145" rx="25.273" ry="25.273"/>
		<g>
			<circle cx="177.359" cy="291.146" r="23.667"/>
			<circle style="fill:#FFFFFF;" cx="177.359" cy="291.146" r="20.456"/>
		</g>
		<g>
			<circle cx="177.359" cy="265.23" r="3.678"/>
			<path style="fill:#FFFFFF;" d="M179.272,265.23c0,1.056-0.856,1.913-1.913,1.913s-1.913-0.856-1.913-1.913
				c0-1.056,0.856-1.913,1.913-1.913S179.272,264.173,179.272,265.23z"/>
		</g>
	</g>
	<g>
		<circle style="fill:#FFFFFF;" cx="216.34" cy="174.396" r="5.594"/>
		<circle style="fill:#FFFFFF;" cx="216.34" cy="200.312" r="25.273"/>
		<g>
			<circle cx="216.34" cy="200.312" r="23.667"/>
			<circle style="fill:#FFFFFF;" cx="216.34" cy="200.312" r="20.456"/>
		</g>
		<g>
			<circle cx="216.34" cy="174.396" r="3.678"/>
			<path style="fill:#FFFFFF;" d="M218.253,174.396c0,1.056-0.856,1.913-1.913,1.913s-1.913-0.856-1.913-1.913
				c0-1.056,0.856-1.913,1.913-1.913S218.253,173.34,218.253,174.396z"/>
		</g>
	</g>
	<g>
		<path style="fill:#FFFFFF;" d="M125.475,212.502c0,3.09-2.505,5.594-5.594,5.594c-3.09,0-5.594-2.505-5.594-5.594
			s2.505-5.594,5.594-5.594C122.971,206.908,125.475,209.413,125.475,212.502z"/>
		
			<ellipse transform="matrix(0.7071 -0.7071 0.7071 0.7071 -133.4745 154.5999)" style="fill:#FFFFFF;" cx="119.881" cy="238.418" rx="25.273" ry="25.273"/>
		<g>
			<circle cx="119.881" cy="238.418" r="23.667"/>
			<circle style="fill:#FFFFFF;" cx="119.881" cy="238.418" r="20.456"/>
		</g>
		<g>
			<circle cx="119.881" cy="212.502" r="3.678"/>
			<path style="fill:#FFFFFF;" d="M121.794,212.502c0,1.056-0.856,1.913-1.913,1.913c-1.056,0-1.913-0.856-1.913-1.913
				s0.856-1.913,1.913-1.913C120.938,210.59,121.794,211.446,121.794,212.502z"/>
		</g>
	</g>
	<g>
		<circle style="fill:#FFFFFF;" cx="91.388" cy="129.493" r="5.594"/>
		<circle style="fill:#FFFFFF;" cx="91.388" cy="155.409" r="25.273"/>
		<g>
			<circle cx="91.388" cy="155.409" r="23.667"/>
			<circle style="fill:#FFFFFF;" cx="91.388" cy="155.409" r="20.456"/>
		</g>
		<g>
			<circle cx="91.388" cy="129.493" r="3.678"/>
			<path style="fill:#FFFFFF;" d="M93.301,129.493c0,1.056-0.856,1.913-1.913,1.913c-1.056,0-1.913-0.856-1.913-1.913
				c0-1.056,0.856-1.913,1.913-1.913C92.445,127.58,93.301,128.437,93.301,129.493z"/>
		</g>
	</g>
</g>
</svg>
